<svg xmlns="http://www.w3.org/2000/svg" viewBox="0 0 120 90" shape-rendering="crispEdges">
  <rect width="120" height="90" rx="10" fill="#24152f"/>
  <rect y="69" width="120" height="21" fill="#111827"/>
  <g fill="#f6c99d"><rect x="22" y="21" width="13" height="13"/><rect x="84" y="21" width="13" height="13"/></g>
  <g fill="#2563eb"><rect x="19" y="34" width="19" height="23"/><rect x="14" y="39" width="8" height="7"/><rect x="35" y="36" width="22" height="7"/><rect x="21" y="57" width="6" height="15"/><rect x="31" y="57" width="6" height="15"/></g>
  <g fill="#22c55e"><rect x="81" y="34" width="19" height="23"/><rect x="97" y="39" width="8" height="7"/><rect x="62" y="36" width="22" height="7"/><rect x="82" y="57" width="6" height="15"/><rect x="94" y="57" width="6" height="15"/></g>
  <g fill="#fff"><rect x="49" y="33" width="7" height="7"/><rect x="64" y="43" width="7" height="7"/></g>
  <text x="60" y="18" text-anchor="middle" fill="#f97316" font-family="monospace" font-size="12" font-weight="700">FIGHT!</text>
</svg>
